<svg xmlns="http://www.w3.org/2000/svg" viewBox="0 0 400 100" style="display:none">
  
  <symbol id="mood-happy" viewBox="0 0 48 48">
    <circle cx="24" cy="24" r="20" fill="none" stroke="currentColor" stroke-width="2"></circle>
    <circle cx="17" cy="19" r="2" fill="currentColor"></circle>
    <circle cx="31" cy="19" r="2" fill="currentColor"></circle>
    <path d="M 17 28 Q 24 32 31 28" fill="none" stroke="currentColor" stroke-width="2" stroke-linecap="round"></path>
  </symbol>

  
  <symbol id="mood-neutral" viewBox="0 0 48 48">
    <circle cx="24" cy="24" r="20" fill="none" stroke="currentColor" stroke-width="2"></circle>
    <circle cx="17" cy="19" r="2" fill="currentColor"></circle>
    <circle cx="31" cy="19" r="2" fill="currentColor"></circle>
    <line x1="17" y1="28" x2="31" y2="28" stroke="currentColor" stroke-width="2" stroke-linecap="round"></line>
  </symbol>

  
  <symbol id="mood-sad" viewBox="0 0 48 48">
    <circle cx="24" cy="24" r="20" fill="none" stroke="currentColor" stroke-width="2"></circle>
    <circle cx="17" cy="19" r="2" fill="currentColor"></circle>
    <circle cx="31" cy="19" r="2" fill="currentColor"></circle>
    <path d="M 17 30 Q 24 26 31 30" fill="none" stroke="currentColor" stroke-width="2" stroke-linecap="round"></path>
  </symbol>

  
  <symbol id="mood-excited" viewBox="0 0 48 48">
    <circle cx="24" cy="24" r="20" fill="none" stroke="currentColor" stroke-width="2"></circle>
    <circle cx="17" cy="18" r="2.5" fill="currentColor"></circle>
    <circle cx="31" cy="18" r="2.5" fill="currentColor"></circle>
    <path d="M 16 26 Q 24 33 32 26" fill="none" stroke="currentColor" stroke-width="2" stroke-linecap="round"></path>
  </symbol>

  
  <symbol id="water-drop" viewBox="0 0 48 48">
    <path d="M 24 8 C 24 8 18 18 18 26 C 18 32.6 20.7 38 24 38 C 27.3 38 30 32.6 30 26 C 30 18 24 8 24 8 Z" fill="none" stroke="currentColor" stroke-width="2" stroke-linejoin="round"></path>
  </symbol>

  
  <symbol id="sleep-moon" viewBox="0 0 48 48">
    <path d="M 32 12 C 32 20.8 25.6 28 18 28 C 10.4 28 4 20.8 4 12 C 4 8.6 5.2 5.4 7.2 3 C 11.6 8.4 14.8 12.6 14.8 17.8 C 14.8 24 19.6 29.2 26 29.2 C 32 29.2 36.8 24.8 36.8 19.2 C 36.8 16 35.6 13.2 33.6 11.2 C 34.4 11.6 35.2 12 36 12.4 C 34 10 32 12 32 12 Z" fill="none" stroke="currentColor" stroke-width="2" stroke-linejoin="round"></path>
  </symbol>

  
  <symbol id="period-cycle" viewBox="0 0 48 48">
    <circle cx="24" cy="24" r="16" fill="none" stroke="currentColor" stroke-width="2"></circle>
    <path d="M 24 10 L 28 18 L 20 18 Z" fill="currentColor"></path>
    <circle cx="24" cy="28" r="3" fill="currentColor"></circle>
  </symbol>
</svg>